<svg version="1.1" xmlns="http://www.w3.org/2000/svg" xmlns:xlink="http://www.w3.org/1999/xlink" width="800" height="800"><defs/><g transform="scale(2,2)"><g id="background-606f137f"><rect fill="white" stroke="none" x="0" y="0" width="400" height="400" class="dcg-svg-background"/></g><g id="graphpaper-606f137f"><g id="grid-606f137f"><g><path fill="none" stroke="rgb(0,0,0)" class="dcg-svg-minor-gridline" paint-order="fill stroke markers" d=" M 33.5 0 L 33.5 400" stroke-opacity="0.2" stroke-miterlimit="10" stroke-dasharray=""/><path fill="none" stroke="rgb(0,0,0)" class="dcg-svg-minor-gridline" paint-order="fill stroke markers" d=" M 66.5 0 L 66.5 400" stroke-opacity="0.2" stroke-miterlimit="10" stroke-dasharray=""/><path fill="none" stroke="rgb(0,0,0)" class="dcg-svg-minor-gridline" paint-order="fill stroke markers" d=" M 100.5 0 L 100.5 400" stroke-opacity="0.2" stroke-miterlimit="10" stroke-dasharray=""/><path fill="none" stroke="rgb(0,0,0)" class="dcg-svg-minor-gridline" paint-order="fill stroke markers" d=" M 133.5 0 L 133.5 400" stroke-opacity="0.2" stroke-miterlimit="10" stroke-dasharray=""/><path fill="none" stroke="rgb(0,0,0)" class="dcg-svg-minor-gridline" paint-order="fill stroke markers" d=" M 166.5 0 L 166.5 400" stroke-opacity="0.2" stroke-miterlimit="10" stroke-dasharray=""/><path fill="none" stroke="rgb(0,0,0)" class="dcg-svg-minor-gridline" paint-order="fill stroke markers" d=" M 233.5 0 L 233.5 400" stroke-opacity="0.2" stroke-miterlimit="10" stroke-dasharray=""/><path fill="none" stroke="rgb(0,0,0)" class="dcg-svg-minor-gridline" paint-order="fill stroke markers" d=" M 266.5 0 L 266.5 400" stroke-opacity="0.2" stroke-miterlimit="10" stroke-dasharray=""/><path fill="none" stroke="rgb(0,0,0)" class="dcg-svg-minor-gridline" paint-order="fill stroke markers" d=" M 300.5 0 L 300.5 400" stroke-opacity="0.2" stroke-miterlimit="10" stroke-dasharray=""/><path fill="none" stroke="rgb(0,0,0)" class="dcg-svg-minor-gridline" paint-order="fill stroke markers" d=" M 333.5 0 L 333.5 400" stroke-opacity="0.2" stroke-miterlimit="10" stroke-dasharray=""/><path fill="none" stroke="rgb(0,0,0)" class="dcg-svg-minor-gridline" paint-order="fill stroke markers" d=" M 366.5 0 L 366.5 400" stroke-opacity="0.2" stroke-miterlimit="10" stroke-dasharray=""/><path fill="none" stroke="rgb(0,0,0)" class="dcg-svg-minor-gridline" paint-order="fill stroke markers" d=" M 0 380.5 L 400 380.5" stroke-opacity="0.2" stroke-miterlimit="10" stroke-dasharray=""/><path fill="none" stroke="rgb(0,0,0)" class="dcg-svg-minor-gridline" paint-order="fill stroke markers" d=" M 0 360.5 L 400 360.5" stroke-opacity="0.2" stroke-miterlimit="10" stroke-dasharray=""/><path fill="none" stroke="rgb(0,0,0)" class="dcg-svg-minor-gridline" paint-order="fill stroke markers" d=" M 0 340.5 L 400 340.5" stroke-opacity="0.2" stroke-miterlimit="10" stroke-dasharray=""/><path fill="none" stroke="rgb(0,0,0)" class="dcg-svg-minor-gridline" paint-order="fill stroke markers" d=" M 0 320.5 L 400 320.5" stroke-opacity="0.2" stroke-miterlimit="10" stroke-dasharray=""/><path fill="none" stroke="rgb(0,0,0)" class="dcg-svg-minor-gridline" paint-order="fill stroke markers" d=" M 0 300.5 L 400 300.5" stroke-opacity="0.2" stroke-miterlimit="10" stroke-dasharray=""/><path fill="none" stroke="rgb(0,0,0)" class="dcg-svg-minor-gridline" paint-order="fill stroke markers" d=" M 0 280.5 L 400 280.5" stroke-opacity="0.2" stroke-miterlimit="10" stroke-dasharray=""/><path fill="none" stroke="rgb(0,0,0)" class="dcg-svg-minor-gridline" paint-order="fill stroke markers" d=" M 0 260.5 L 400 260.5" stroke-opacity="0.2" stroke-miterlimit="10" stroke-dasharray=""/><path fill="none" stroke="rgb(0,0,0)" class="dcg-svg-minor-gridline" paint-order="fill stroke markers" d=" M 0 240.5 L 400 240.5" stroke-opacity="0.2" stroke-miterlimit="10" stroke-dasharray=""/><path fill="none" stroke="rgb(0,0,0)" class="dcg-svg-minor-gridline" paint-order="fill stroke markers" d=" M 0 220.5 L 400 220.5" stroke-opacity="0.2" stroke-miterlimit="10" stroke-dasharray=""/><path fill="none" stroke="rgb(0,0,0)" class="dcg-svg-minor-gridline" paint-order="fill stroke markers" d=" M 0 180.5 L 400 180.5" stroke-opacity="0.2" stroke-miterlimit="10" stroke-dasharray=""/><path fill="none" stroke="rgb(0,0,0)" class="dcg-svg-minor-gridline" paint-order="fill stroke markers" d=" M 0 160.5 L 400 160.5" stroke-opacity="0.2" stroke-miterlimit="10" stroke-dasharray=""/><path fill="none" stroke="rgb(0,0,0)" class="dcg-svg-minor-gridline" paint-order="fill stroke markers" d=" M 0 140.5 L 400 140.5" stroke-opacity="0.2" stroke-miterlimit="10" stroke-dasharray=""/><path fill="none" stroke="rgb(0,0,0)" class="dcg-svg-minor-gridline" paint-order="fill stroke markers" d=" M 0 120.5 L 400 120.5" stroke-opacity="0.2" stroke-miterlimit="10" stroke-dasharray=""/><path fill="none" stroke="rgb(0,0,0)" class="dcg-svg-minor-gridline" paint-order="fill stroke markers" d=" M 0 100.5 L 400 100.5" stroke-opacity="0.2" stroke-miterlimit="10" stroke-dasharray=""/><path fill="none" stroke="rgb(0,0,0)" class="dcg-svg-minor-gridline" paint-order="fill stroke markers" d=" M 0 80.5 L 400 80.5" stroke-opacity="0.2" stroke-miterlimit="10" stroke-dasharray=""/><path fill="none" stroke="rgb(0,0,0)" class="dcg-svg-minor-gridline" paint-order="fill stroke markers" d=" M 0 60.5 L 400 60.5" stroke-opacity="0.2" stroke-miterlimit="10" stroke-dasharray=""/><path fill="none" stroke="rgb(0,0,0)" class="dcg-svg-minor-gridline" paint-order="fill stroke markers" d=" M 0 40.5 L 400 40.5" stroke-opacity="0.2" stroke-miterlimit="10" stroke-dasharray=""/><path fill="none" stroke="rgb(0,0,0)" class="dcg-svg-minor-gridline" paint-order="fill stroke markers" d=" M 0 20.5 L 400 20.5" stroke-opacity="0.2" stroke-miterlimit="10" stroke-dasharray=""/><path fill="none" stroke="rgb(0,0,0)" class="dcg-svg-major-gridline" paint-order="fill stroke markers" d=" M 33.5 0 L 33.5 400" stroke-opacity="0.2500000000000001" stroke-miterlimit="10" stroke-dasharray=""/><path fill="none" stroke="rgb(0,0,0)" class="dcg-svg-major-gridline" paint-order="fill stroke markers" d=" M 366.5 0 L 366.5 400" stroke-opacity="0.2500000000000001" stroke-miterlimit="10" stroke-dasharray=""/><path fill="none" stroke="rgb(0,0,0)" class="dcg-svg-major-gridline" paint-order="fill stroke markers" d=" M 0 300.5 L 400 300.5" stroke-opacity="0.2500000000000001" stroke-miterlimit="10" stroke-dasharray=""/><path fill="none" stroke="rgb(0,0,0)" class="dcg-svg-major-gridline" paint-order="fill stroke markers" d=" M 0 100.5 L 400 100.5" stroke-opacity="0.2500000000000001" stroke-miterlimit="10" stroke-dasharray=""/></g></g><g id="axis-606f137f"><g id="yaxis-606f137f"><title>Y axis</title><g><path fill="none" stroke="rgb(0,0,0)" class="dcg-svg-axis-line" paint-order="fill stroke markers" d=" M 200 3 L 200 400" stroke-opacity="0.9" stroke-miterlimit="10" stroke-width="1.5" stroke-dasharray=""/><g class="dcg-svg-axis-line"><path fill="rgb(0,0,0)" stroke="rgb(0,0,0)" class="dcg-svg-axis-line" paint-order="stroke fill markers" d=" M 200 1.5 L 203.10582854123024 13.09110991546882 L 196.89417145876976 13.09110991546882 L 200 1.5 L 203.10582854123024 13.09110991546882" stroke-opacity="0.9" stroke-linejoin="round" stroke-miterlimit="10" stroke-width="1.5" stroke-dasharray="" fill-opacity="0.9"/></g></g></g><g id="xaxis-606f137f"><title>X axis</title><g><path fill="none" stroke="rgb(0,0,0)" class="dcg-svg-axis-line" paint-order="fill stroke markers" d=" M 0 200 L 397 200" stroke-opacity="0.9" stroke-miterlimit="10" stroke-width="1.5" stroke-dasharray=""/><g class="dcg-svg-axis-line"><path fill="rgb(0,0,0)" stroke="rgb(0,0,0)" class="dcg-svg-axis-line" paint-order="stroke fill markers" d=" M 398.5 200 L 386.9088900845312 203.10582854123027 L 386.9088900845312 196.89417145876976 L 398.5 200 L 386.9088900845312 203.10582854123027" stroke-opacity="0.9" stroke-linejoin="round" stroke-miterlimit="10" stroke-width="1.5" stroke-dasharray="" fill-opacity="0.9"/></g></g></g><g><g class="dcg-svg-axis-value"><text fill="none" stroke="#ffffff" font-family="Arial" font-size="14px" font-style="normal" font-weight="normal" text-decoration="normal" x="191.1083333492279" y="215.808" text-anchor="middle" stroke-miterlimit="2" stroke-width="3" stroke-dasharray="">0</text><text fill="#000000" stroke="none" font-family="Arial" font-size="14px" font-style="normal" font-weight="normal" text-decoration="normal" x="191.1083333492279" y="215.808" text-anchor="middle">0</text></g><g class="dcg-svg-axis-value"><text fill="none" stroke="#ffffff" font-family="Arial" font-size="14px" font-style="normal" font-weight="normal" text-decoration="normal" x="31.00000007947284" y="215.808" text-anchor="middle" stroke-miterlimit="2" stroke-width="3" stroke-dasharray="">-5</text><text fill="#000000" stroke="none" font-family="Arial" font-size="14px" font-style="normal" font-weight="normal" text-decoration="normal" x="31.00000007947284" y="215.808" text-anchor="middle">-5</text></g><g class="dcg-svg-axis-value"><text fill="none" stroke="#ffffff" font-family="Arial" font-size="14px" font-style="normal" font-weight="normal" text-decoration="normal" x="366.6666666666667" y="215.808" text-anchor="middle" stroke-miterlimit="2" stroke-width="3" stroke-dasharray="">5</text><text fill="#000000" stroke="none" font-family="Arial" font-size="14px" font-style="normal" font-weight="normal" text-decoration="normal" x="366.6666666666667" y="215.808" text-anchor="middle">5</text></g><g class="dcg-svg-axis-value dcg-svg-offcenter-axis-value"><text fill="none" stroke="#ffffff" font-family="Arial" font-size="14px" font-style="normal" font-weight="normal" text-decoration="normal" x="184.88333320617676" y="393.808" text-anchor="middle" stroke-miterlimit="2" stroke-width="3" stroke-dasharray="">-20</text><text fill="#000000" stroke="none" font-family="Arial" font-size="14px" font-style="normal" font-weight="normal" text-decoration="normal" x="184.88333320617676" y="393.808" text-anchor="middle">-20</text></g><g class="dcg-svg-axis-value"><text fill="none" stroke="#ffffff" font-family="Arial" font-size="14px" font-style="normal" font-weight="normal" text-decoration="normal" x="184.88333320617676" y="303.808" text-anchor="middle" stroke-miterlimit="2" stroke-width="3" stroke-dasharray="">-10</text><text fill="#000000" stroke="none" font-family="Arial" font-size="14px" font-style="normal" font-weight="normal" text-decoration="normal" x="184.88333320617676" y="303.808" text-anchor="middle">-10</text></g><g class="dcg-svg-axis-value"><text fill="none" stroke="#ffffff" font-family="Arial" font-size="14px" font-style="normal" font-weight="normal" text-decoration="normal" x="187.2166666984558" y="103.808" text-anchor="middle" stroke-miterlimit="2" stroke-width="3" stroke-dasharray="">10</text><text fill="#000000" stroke="none" font-family="Arial" font-size="14px" font-style="normal" font-weight="normal" text-decoration="normal" x="187.2166666984558" y="103.808" text-anchor="middle">10</text></g><g class="dcg-svg-axis-value dcg-svg-offcenter-axis-value"><text fill="none" stroke="#ffffff" font-family="Arial" font-size="14px" font-style="normal" font-weight="normal" text-decoration="normal" x="187.2166666984558" y="13.808" text-anchor="middle" stroke-miterlimit="2" stroke-width="3" stroke-dasharray="">20</text><text fill="#000000" stroke="none" font-family="Arial" font-size="14px" font-style="normal" font-weight="normal" text-decoration="normal" x="187.2166666984558" y="13.808" text-anchor="middle">20</text></g></g></g></g><g id="expressions-606f137f"><g id="sketch-606f137f"><title>Expression 1</title><path fill="#c74440" stroke="none" paint-order="stroke fill markers" d="" fill-opacity="0.4"/><g><path fill="none" stroke="#c74440" class="dcg-svg-curve" paint-order="fill stroke markers" d=" M 0 199.71428571428572 L 0 199.71428571428572 L 58.49609375 199.41249114108138 L 88.47656249999999 199.0190047619493 L 106.640625 198.53894634524795 L 118.84765625 197.9704219880758 L 127.5390625 197.31581722769744 L 133.984375 196.5779868729538 L 138.8671875 195.76898432317532 L 142.7734375 194.86492574882908 L 145.8984375 193.88110182369047 L 148.4375 192.82033304119193 L 150.5859375 191.64978960746902 L 152.44140625 190.34411503345012 L 154.1015625 188.8392845738906 L 155.56640625 187.12849337567468 L 156.93359375 185.05776248908091 L 158.10546875 182.7478105210162 L 159.08203125 180.27038062140502 L 159.9609375 177.41714837053436 L 160.7421875 174.1640959936924 L 161.5234375 169.915879591907 L 162.20703125 164.970986654195 L 162.79296875 159.33750334466964 L 163.37890625 151.68943418306466 L 163.8671875 142.86436651337155 L 164.35546875 130.30355801633777 L 164.74609375 115.65033423696636 L 165.13671875 93.50774386837962 L 165.4296875 67.7176161881213 L 165.72265625 25.9133697474806 L 165.83850997327062 -5.5" stroke-linecap="round" stroke-linejoin="round" stroke-miterlimit="10" stroke-width="2.5" stroke-dasharray=""/></g><g><path fill="none" stroke="#c74440" class="dcg-svg-curve" paint-order="fill stroke markers" d=" M 167.51185036700534 405.5 L 167.51185036700534 405.5 L 167.67578125 367.6997137236714 L 168.06640625 321.6233834019602 L 168.45703125 295.6599005610546 L 168.9453125 275.73133034811497 L 169.43359375 262.8435467921249 L 170.01953125 252.34112860957896 L 170.60546875 244.97102934806384 L 171.2890625 238.7425919631113 L 172.0703125 233.56388358961885 L 172.8515625 229.70301965894282 L 173.73046875 226.39075622849694 L 174.70703125 223.5716100142296 L 175.78125 221.18164188752425 L 176.953125 219.1586517379484 L 178.3203125 217.3312617764702 L 179.8828125 215.72898603769283 L 181.640625 214.35461614281022 L 183.59375 213.19693918646797 L 185.7421875 212.23925334877185 L 188.28125 211.41026533881188 L 191.11328125 210.7651478830077 L 194.3359375 210.2973190611804 L 197.94921875 210.03799515032927 L 201.7578125 210.02788669357153 L 205.46875 210.27661042463777 L 208.88671875 210.7651478830077 L 211.81640625 211.4372599685648 L 214.35546875 212.27704178106652 L 216.6015625 213.2987687640461 L 218.45703125 214.4216029168449 L 220.1171875 215.72898603769283 L 221.58203125 217.2177988101943 L 222.94921875 219.01140601685066 L 224.21875 221.18164188752425 L 225.29296875 223.5716100142296 L 226.26953125 226.39075622849694 L 227.1484375 229.70301965894282 L 227.9296875 233.56388358961885 L 228.61328125 238.0008335296356 L 229.296875 243.95144524176783 L 229.8828125 250.93834405300896 L 230.37109375 258.8799856250035 L 230.859375 269.96476993701293 L 231.34765625 286.5111750971479 L 231.73828125 307.0510765586875 L 232.12890625 340.9243753947881 L 232.421875 385.39179632248937 L 232.48989711184066 405.5" stroke-linecap="round" stroke-linejoin="round" stroke-miterlimit="10" stroke-width="2.5" stroke-dasharray=""/></g><g><path fill="none" stroke="#c74440" class="dcg-svg-curve" paint-order="fill stroke markers" d=" M 234.15053224843246 -5.5 L 234.15053224843246 -5.5 L 234.375 42.46153846153845 L 234.765625 86.08378237441335 L 235.15625 111.0048886474742 L 235.64453125 130.30355801633777 L 236.1328125 142.86436651337155 L 236.71875 153.1484129253646 L 237.3046875 160.3922338898542 L 237.98828125 166.53263669238112 L 238.76953125 171.65282978061936 L 239.55078125 175.48045242710728 L 240.4296875 178.7732495526207 L 241.40625 181.58480386647184 L 242.48046875 183.97772782905926 L 243.65234375 186.01348530421967 L 245.01953125 187.86529076636967 L 246.58203125 189.50568713501502 L 248.33984375 190.93436297442008 L 250.29296875 192.16573810432823 L 252.5390625 193.26289818943474 L 255.17578125 194.25264285271882 L 258.3984375 195.16754076299853 L 262.3046875 195.98987310790037 L 267.1875 196.73495416500597 L 273.33984375 197.39641602976388 L 281.34765625 197.98212040008275 L 292.08984375 198.49226957732688 L 307.12890625 198.92806711847808 L 329.19921875 199.28689571172137 L 364.16015625 199.56996093182403 L 400 199.71428571428572" stroke-linecap="round" stroke-linejoin="round" stroke-miterlimit="10" stroke-width="2.5" stroke-dasharray=""/></g></g><g id="sketch-606f137f"><title>Expression 2</title><path fill="#6042a6" stroke="none" paint-order="stroke fill markers" d="" fill-opacity="0.4"/><g><path fill="none" stroke="#6042a6" class="dcg-svg-curve" paint-order="fill stroke markers" d=" M 233.33333333333334 400 L 233.33333333333334 400 L 233.33333333333334 0" stroke-linecap="round" stroke-linejoin="round" stroke-miterlimit="10" stroke-width="2.5" stroke-dasharray=""/></g></g><g id="sketch-606f137f"><title>Expression 3</title><path fill="#000000" stroke="none" paint-order="stroke fill markers" d="" fill-opacity="0.4"/><g><path fill="none" stroke="#000000" class="dcg-svg-curve" paint-order="fill stroke markers" d=" M 166.66666666666666 400 L 166.66666666666666 400 L 166.66666666666666 0" stroke-linecap="round" stroke-linejoin="round" stroke-miterlimit="10" stroke-width="2.5" stroke-dasharray=""/></g></g></g><g id="labels-606f137f"/><g id="labels-606f137f"/></g></svg>